# xmcd CD database file
#
# Track frame offsets:
#	150
#	19293
#	37483
#	43250
#	53702
#	67450
#	78126
#	89570
#	102243
#	127063
#	139595
#	156946
#
# Disc length: 2466 seconds
#
# Revision: 0
# Processed by: cddbd v1.5PL3 Copyright (c) Steve Scherf et al.
# Submitted via: CDex 1.51
#
DISCID=b309a00c
DTITLE=S.E.N.S. - Asian Blue
DYEAR=1995
DGENRE=New Age
TTITLE0=Asian Blue
TTITLE1=Tin Field
TTITLE2=Sican - Prayer
TTITLE3=Ripple
TTITLE4=Wonder Land
TTITLE5=I,KIMONO - Cat Whistle
TTITLE6=Villa Of The God Of The Sea
TTITLE7=Paradise
TTITLE8=Sican
TTITLE9=Reality
TTITLE10=I,KIMONO - Dance Of Parting
TTITLE11=Asian Blue - Sea Where Swims The Moon
EXTD=YEAR: 1995
EXTT0=
EXTT1=
EXTT2=
EXTT3=
EXTT4=
EXTT5=
EXTT6=
EXTT7=
EXTT8=
EXTT9=
EXTT10=
EXTT11=
PLAYORDER=
